<svg xmlns="http://www.w3.org/2000/svg" viewBox="0 0 600 800" width="100%" height="100%">
  <defs>
    <linearGradient id="bg-22" x1="0%" y1="0%" x2="100%" y2="100%">
      <stop offset="0%" stop-color="#09122c" />
      <stop offset="50%" stop-color="#122047" />
      <stop offset="100%" stop-color="#050a18" />
    </linearGradient>
    <filter id="glow-22" x="-20%" y="-20%" width="140%" height="140%">
      <feGaussianBlur stdDeviation="6" result="blur" />
      <feComposite in="SourceGraphic" in2="blur" operator="over" />
    </filter>
  </defs>

  <!-- Background Canvas -->
  <rect width="600" height="800" fill="url(#bg-22)" />

  <!-- Cohesive Collection Borders -->
  <rect x="24" y="24" width="552" height="752" rx="4" fill="none" stroke="#bae6fd" stroke-width="1.5" stroke-opacity="0.3" />
  <rect x="32" y="32" width="536" height="736" rx="2" fill="none" stroke="#bae6fd" stroke-width="2.5" stroke-opacity="0.8" />
  <rect x="38" y="38" width="524" height="724" fill="none" stroke="#bae6fd" stroke-width="1" stroke-dasharray="4,4" stroke-opacity="0.5" />

  <!-- Corner Brackets -->
  <path d="M 24 44 L 44 44 L 44 24" fill="none" stroke="#bae6fd" stroke-width="3" />
  <path d="M 576 44 L 556 44 L 556 24" fill="none" stroke="#bae6fd" stroke-width="3" />
  <path d="M 24 756 L 44 756 L 44 776" fill="none" stroke="#bae6fd" stroke-width="3" />
  <path d="M 576 756 L 556 756 L 556 776" fill="none" stroke="#bae6fd" stroke-width="3" />

  <!-- Header Branding -->
  <text x="300" y="80" text-anchor="middle" font-family="'Hind Siliguri', 'Noto Serif Bengali', 'Georgia', serif" font-size="14" letter-spacing="4" fill="#bae6fd" font-weight="600" opacity="0.9">
    কথাবার্তা সাহিত্য সংকলন
  </text>
  <line x1="160" y1="95" x2="440" y2="95" stroke="#bae6fd" stroke-width="1" stroke-opacity="0.4" />
  <circle cx="300" cy="95" r="3.5" fill="#bae6fd" />

  <!-- Serial Number Pill -->
  <rect x="230" y="112" width="140" height="24" rx="12" fill="#bae6fd" fill-opacity="0.15" stroke="#bae6fd" stroke-width="1" stroke-opacity="0.5" />
  <text x="300" y="128" text-anchor="middle" font-family="monospace" font-size="11" fill="#ffffff" font-weight="bold" letter-spacing="1">
    সংকলন নং ২২
  </text>

  <!-- Central Artwork Vignette -->
  <g transform="translate(300, 310)" filter="url(#glow-22)">
    <circle cx="0" cy="0" r="110" fill="#bae6fd" fill-opacity="0.06" stroke="#bae6fd" stroke-width="1.5" stroke-opacity="0.25" />
    <circle cx="0" cy="0" r="85" fill="#bae6fd" fill-opacity="0.08" stroke="#bae6fd" stroke-width="1" stroke-dasharray="6,4" stroke-opacity="0.4" />
    
        <g stroke="#bae6fd" stroke-width="1.5">
            <!-- Constellation lines -->
            <line x1="-45" y1="-30" x2="-15" y2="-45" />
            <line x1="-15" y1="-45" x2="20" y2="-25" />
            <line x1="20" y1="-25" x2="45" y2="-40" />
            <line x1="-15" y1="-45" x2="0" y2="15" />
            <line x1="0" y1="15" x2="35" y2="35" />
            <line x1="0" y1="15" x2="-35" y2="40" />
        </g>
        <circle cx="-45" cy="-30" r="4" fill="#bae6fd" />
        <circle cx="-15" cy="-45" r="5" fill="#ffffff" />
        <circle cx="20" cy="-25" r="4" fill="#bae6fd" />
        <circle cx="45" cy="-40" r="3.5" fill="#bae6fd" />
        <circle cx="0" cy="15" r="5" fill="#ffffff" />
        <circle cx="35" cy="35" r="4" fill="#bae6fd" />
        <circle cx="-35" cy="40" r="4" fill="#bae6fd" />
        
  </g>

  <!-- Title & Subtitle Area -->
  <g transform="translate(300, 520)">
    <text x="0" y="0" text-anchor="middle" font-family="'Hind Siliguri', 'Noto Serif Bengali', 'SolaimanLipi', serif" font-size="32" font-weight="900" fill="#ffffff" letter-spacing="0.5">
      নক্ষত্রের রাত
    </text>
    <line x1="-120" y1="26" x2="120" y2="26" stroke="#bae6fd" stroke-width="1.5" stroke-opacity="0.6" />
    <polygon points="0,21 6,26 0,31 -6,26" fill="#bae6fd" />
    <text x="0" y="56" text-anchor="middle" font-family="'Hind Siliguri', sans-serif" font-size="15" fill="#cbd5e1" font-weight="500">
      তারাভরা আকাশের নিচের গল্প
    </text>
  </g>

  <!-- Footer Seal -->
  <g transform="translate(300, 705)">
    <line x1="-90" y1="0" x2="90" y2="0" stroke="#bae6fd" stroke-width="1" stroke-opacity="0.3" />
    <circle cx="-90" cy="0" r="2.5" fill="#bae6fd" />
    <circle cx="90" cy="0" r="2.5" fill="#bae6fd" />
    <rect x="-42" y="-12" width="84" height="24" rx="4" fill="#09122c" stroke="#bae6fd" stroke-width="1" stroke-opacity="0.6" />
    <text x="0" y="4" text-anchor="middle" font-family="'Hind Siliguri', serif" font-size="11" font-weight="700" fill="#bae6fd" letter-spacing="2">
      কথা বার্তা
    </text>
    <text x="0" y="26" text-anchor="middle" font-family="monospace" font-size="9" fill="#94a3b8" letter-spacing="1">
      LITERARY HERITAGE • COLLECTION
    </text>
  </g>
</svg>